<svg width="36" height="35" viewBox="0 0 36 35" fill="none" xmlns="http://www.w3.org/2000/svg">
<path d="M18 3.09604C22.806 3.09604 23.376 3.11322 25.2735 3.19628C27.2355 3.2822 29.256 3.70894 30.6855 5.07366C32.1285 6.45127 32.562 8.36159 32.652 10.2404C32.739 12.0519 32.757 12.5961 32.757 17.1843C32.757 21.7725 32.739 22.3167 32.652 24.1282C32.5635 25.9912 32.106 27.9388 30.6855 29.2949C29.2425 30.6725 27.243 31.0864 25.2735 31.1723C23.376 31.2554 22.806 31.2725 18 31.2725C13.194 31.2725 12.624 31.2554 10.7265 31.1723C8.79 31.0878 6.723 30.641 5.3145 29.2949C3.879 27.9245 3.438 25.9955 3.348 24.1282C3.261 22.3167 3.243 21.7725 3.243 17.1843C3.243 12.5961 3.261 12.0519 3.348 10.2404C3.4365 8.3845 3.8985 6.42549 5.3145 5.07366C6.7545 3.69892 8.763 3.2822 10.7265 3.19628C12.624 3.11322 13.194 3.09604 18 3.09604ZM18 0C13.1115 0 12.498 0.0200483 10.578 0.103106C7.7955 0.224828 5.0325 0.963752 3.021 2.8841C1.002 4.8116 0.2355 7.44366 0.108 10.0986C0.021 11.9316 0 12.5173 0 17.1843C0 21.8513 0.021 22.437 0.108 24.2699C0.2355 26.9235 1.0125 29.5684 3.021 31.4845C5.0385 33.4106 7.8 34.1437 10.578 34.2655C12.498 34.3485 13.1115 34.3686 18 34.3686C22.8885 34.3686 23.502 34.3485 25.422 34.2655C28.203 34.1437 30.969 33.4034 32.979 31.4845C34.9995 29.5555 35.7645 26.9249 35.892 24.2699C35.979 22.437 36 21.8513 36 17.1843C36 12.5173 35.979 11.9316 35.892 10.0986C35.7645 7.44223 34.989 4.80301 32.979 2.8841C30.9645 0.960888 28.1955 0.223396 25.422 0.103106C23.502 0.0200483 22.8885 0 18 0Z" fill="white"/>
<path d="M18 3.09604C22.806 3.09604 23.376 3.11322 25.2735 3.19628C27.2355 3.2822 29.256 3.70894 30.6855 5.07366C32.1285 6.45127 32.562 8.36159 32.652 10.2404C32.739 12.0519 32.757 12.5961 32.757 17.1843C32.757 21.7725 32.739 22.3167 32.652 24.1282C32.5635 25.9912 32.106 27.9388 30.6855 29.2949C29.2425 30.6725 27.243 31.0864 25.2735 31.1723C23.376 31.2554 22.806 31.2725 18 31.2725C13.194 31.2725 12.624 31.2554 10.7265 31.1723C8.79 31.0878 6.723 30.641 5.3145 29.2949C3.879 27.9245 3.438 25.9955 3.348 24.1282C3.261 22.3167 3.243 21.7725 3.243 17.1843C3.243 12.5961 3.261 12.0519 3.348 10.2404C3.4365 8.3845 3.8985 6.42549 5.3145 5.07366C6.7545 3.69892 8.763 3.2822 10.7265 3.19628C12.624 3.11322 13.194 3.09604 18 3.09604ZM18 0C13.1115 0 12.498 0.0200483 10.578 0.103106C7.7955 0.224828 5.0325 0.963752 3.021 2.8841C1.002 4.8116 0.2355 7.44366 0.108 10.0986C0.021 11.9316 0 12.5173 0 17.1843C0 21.8513 0.021 22.437 0.108 24.2699C0.2355 26.9235 1.0125 29.5684 3.021 31.4845C5.0385 33.4106 7.8 34.1437 10.578 34.2655C12.498 34.3485 13.1115 34.3686 18 34.3686C22.8885 34.3686 23.502 34.3485 25.422 34.2655C28.203 34.1437 30.969 33.4034 32.979 31.4845C34.9995 29.5555 35.7645 26.9249 35.892 24.2699C35.979 22.437 36 21.8513 36 17.1843C36 12.5173 35.979 11.9316 35.892 10.0986C35.7645 7.44223 34.989 4.80301 32.979 2.8841C30.9645 0.960888 28.1955 0.223396 25.422 0.103106C23.502 0.0200483 22.8885 0 18 0Z" fill="white"/>
<path d="M17.9998 8.35986C12.8953 8.35986 8.75684 12.3108 8.75684 17.184C8.75684 22.0572 12.8953 26.0081 17.9998 26.0081C23.1043 26.0081 27.2428 22.0572 27.2428 17.184C27.2428 12.3108 23.1043 8.35986 17.9998 8.35986ZM17.9998 22.9121C14.6863 22.9121 11.9998 20.3473 11.9998 17.184C11.9998 14.0207 14.6863 11.4559 17.9998 11.4559C21.3133 11.4559 23.9998 14.0207 23.9998 17.184C23.9998 20.3473 21.3133 22.9121 17.9998 22.9121Z" fill="white"/>
<path d="M17.9998 8.35986C12.8953 8.35986 8.75684 12.3108 8.75684 17.184C8.75684 22.0572 12.8953 26.0081 17.9998 26.0081C23.1043 26.0081 27.2428 22.0572 27.2428 17.184C27.2428 12.3108 23.1043 8.35986 17.9998 8.35986ZM17.9998 22.9121C14.6863 22.9121 11.9998 20.3473 11.9998 17.184C11.9998 14.0207 14.6863 11.4559 17.9998 11.4559C21.3133 11.4559 23.9998 14.0207 23.9998 17.184C23.9998 20.3473 21.3133 22.9121 17.9998 22.9121Z" fill="white"/>
<path d="M27.6092 10.0725C28.8022 10.0725 29.7692 9.14923 29.7692 8.01036C29.7692 6.87148 28.8022 5.94824 27.6092 5.94824C26.4163 5.94824 25.4492 6.87148 25.4492 8.01036C25.4492 9.14923 26.4163 10.0725 27.6092 10.0725Z" fill="white"/>
<path d="M27.6092 10.0725C28.8022 10.0725 29.7692 9.14923 29.7692 8.01036C29.7692 6.87148 28.8022 5.94824 27.6092 5.94824C26.4163 5.94824 25.4492 6.87148 25.4492 8.01036C25.4492 9.14923 26.4163 10.0725 27.6092 10.0725Z" fill="white"/>
</svg>
