<svg width="36" height="35" viewBox="0 0 36 35" fill="none" xmlns="http://www.w3.org/2000/svg">
<path fill-rule="evenodd" clip-rule="evenodd" d="M18 0C8.0595 0 0 7.69427 0 17.1843C0 26.6743 8.0595 34.3686 18 34.3686C27.9405 34.3686 36 26.6743 36 17.1843C36 7.69427 27.9405 0 18 0ZM26.343 11.6867C26.073 14.4033 24.9 20.9978 24.3045 24.0408C24.0525 25.3296 23.5545 25.7607 23.0745 25.8022C22.029 25.8939 21.2355 25.142 20.223 24.5091C18.639 23.5181 17.7435 22.9009 16.206 21.9329C14.4285 20.8145 15.5805 20.2001 16.593 19.1963C16.8585 18.9328 21.4635 14.9331 21.5535 14.5708C21.564 14.525 21.576 14.356 21.4695 14.2673C21.363 14.1785 21.2085 14.2085 21.0975 14.2329C20.9385 14.2673 18.408 15.864 13.5045 19.023C12.786 19.4941 12.135 19.7233 11.5515 19.7118C10.9095 19.6989 9.6735 19.3653 8.754 19.0789C7.6275 18.7294 6.7305 18.5433 6.8085 17.9504C6.849 17.6411 7.2945 17.3246 8.1465 17.001C13.3935 14.8186 16.893 13.3794 18.6435 12.6834C23.643 10.6987 24.681 10.3535 25.359 10.3421C26.208 10.3306 26.412 10.9994 26.343 11.6867Z" fill="white"/>
</svg>
