<svg width="36" height="35" viewBox="0 0 36 35" fill="none" xmlns="http://www.w3.org/2000/svg">
<path d="M33.474 2.41153C30.948 0 26.8815 0 18.75 0H17.25C9.1185 0 5.052 0 2.526 2.41153C0 4.82306 0 8.70527 0 16.4683V17.9003C0 25.6633 0 29.5441 2.526 31.9571C5.052 34.37 9.1185 34.3686 17.25 34.3686H18.75C26.8815 34.3686 30.9465 34.3686 33.474 31.9571C36 29.5455 36 25.6633 36 17.9003V16.4683C36 8.70527 36 4.82306 33.474 2.41153ZM29.2545 24.3444H26.6295C25.629 24.3444 25.335 23.5826 23.5545 21.8828C21.996 20.4493 21.3285 20.2631 20.94 20.2631C20.4105 20.2631 20.253 20.4063 20.253 21.1224V23.3692C20.253 23.985 20.0475 24.3444 18.378 24.3444C15.597 24.3444 12.54 22.732 10.3695 19.7591C7.1145 15.4043 6.225 12.1121 6.225 11.449C6.225 11.0767 6.375 10.7402 7.125 10.7402H9.7515C10.422 10.7402 10.674 11.0209 10.926 11.714C12.21 15.284 14.376 18.4044 15.2655 18.4044C15.5985 18.4044 15.7515 18.2569 15.7515 17.4492V13.7589C15.654 12.0605 14.7075 11.9202 14.7075 11.3159C14.7075 11.0366 14.958 10.7402 15.375 10.7402H19.5015C20.058 10.7402 20.2515 11.0237 20.2515 11.661V16.6258C20.2515 17.1556 20.493 17.3418 20.6595 17.3418C20.994 17.3418 21.2715 17.1556 21.8835 16.5714C23.775 14.5537 25.11 11.4476 25.11 11.4476C25.278 11.0753 25.584 10.7387 26.253 10.7387H28.878C29.6715 10.7387 29.8395 11.1283 29.6715 11.6595C29.337 13.1202 26.139 17.4206 26.139 17.4206C25.86 17.8459 25.749 18.0578 26.139 18.5361C26.418 18.9084 27.3345 19.6517 27.9465 20.3419C29.0745 21.5534 29.925 22.5744 30.162 23.279C30.381 23.9864 30.0045 24.3444 29.2545 24.3444Z" fill="white"/>
</svg>
